<svg xmlns="http://www.w3.org/2000/svg" xmlns:xlink="http://www.w3.org/1999/xlink" width="400" zoomAndPan="magnify" viewBox="0 0 300 135.000003" height="180" preserveAspectRatio="xMidYMid meet" version="1.0"><defs><g/><clipPath id="18b3270a6e"><path d="M 14.128906 29.738281 L 101.339844 29.738281 L 101.339844 32.460938 L 14.128906 32.460938 Z M 98.5625 32.460938 L 101.339844 32.460938 L 101.339844 106.542969 L 98.5625 106.542969 Z M 14.128906 32.460938 L 16.847656 32.460938 L 16.847656 106.542969 L 14.128906 106.542969 Z M 14.128906 106.542969 L 101.339844 106.542969 L 101.339844 109.320312 L 14.128906 109.320312 Z M 14.128906 106.542969 " clip-rule="nonzero"/></clipPath><clipPath id="a8cbced77d"><path d="M 0.128906 0.738281 L 87.339844 0.738281 L 87.339844 3.460938 L 0.128906 3.460938 Z M 84.5625 3.460938 L 87.339844 3.460938 L 87.339844 77.542969 L 84.5625 77.542969 Z M 0.128906 3.460938 L 2.847656 3.460938 L 2.847656 77.542969 L 0.128906 77.542969 Z M 0.128906 77.542969 L 87.339844 77.542969 L 87.339844 80.320312 L 0.128906 80.320312 Z M 0.128906 77.542969 " clip-rule="nonzero"/></clipPath><clipPath id="c672e37db2"><rect x="0" width="88" y="0" height="81"/></clipPath><clipPath id="6f7286e922"><rect x="0" width="76" y="0" height="123"/></clipPath><clipPath id="3f26759792"><rect x="0" width="137" y="0" height="21"/></clipPath><clipPath id="a5b42bff92"><rect x="0" width="30" y="0" height="31"/></clipPath><clipPath id="a35da6ff3b"><rect x="0" width="175" y="0" height="56"/></clipPath></defs><g clip-path="url(#18b3270a6e)"><g transform="matrix(1, 0, 0, 1, 14, 29)"><g clip-path="url(#c672e37db2)"><g clip-path="url(#a8cbced77d)"><path fill="#0e105a" d="M 0.128906 0.738281 L 87.480469 0.738281 L 87.480469 80.320312 L 0.128906 80.320312 Z M 0.128906 0.738281 " fill-opacity="1" fill-rule="nonzero"/></g></g></g></g><g transform="matrix(1, 0, 0, 1, 21, 4)"><g clip-path="url(#6f7286e922)"><g fill="#0e105a" fill-opacity="1"><g transform="translate(1.109378, 99.518808)"><g><path d="M 9.921875 -63.984375 L 10.125 -63.984375 C 10.832031 -63.984375 11.566406 -63.019531 12.328125 -61.09375 C 12.441406 -60.644531 12.5 -60.382812 12.5 -60.3125 C 12.5 -60.132812 11.9375 -58.59375 10.8125 -55.6875 C 8.820312 -50.40625 6.8125 -42.9375 4.78125 -33.28125 L 4.78125 -33.21875 L 4.875 -33.21875 C 6.132812 -36.375 7.660156 -39.597656 9.453125 -42.890625 C 17.359375 -56.179688 26.101562 -62.828125 35.6875 -62.828125 C 39.363281 -62.828125 42.707031 -61.898438 45.71875 -60.046875 C 48.863281 -57.703125 50.4375 -54.046875 50.4375 -49.078125 C 50.4375 -42.222656 47.65625 -34.472656 42.09375 -25.828125 L 42.15625 -25.828125 C 46.382812 -26.523438 49.65625 -26.875 51.96875 -26.875 C 52.53125 -26.769531 52.8125 -26.472656 52.8125 -25.984375 C 52.8125 -25.421875 52.210938 -25.140625 51.015625 -25.140625 C 48.566406 -25.140625 45.125 -24.6875 40.6875 -23.78125 C 34.5625 -15.519531 27.679688 -10.078125 20.046875 -7.453125 C 17.210938 -6.503906 14.519531 -6.03125 11.96875 -6.03125 C 7.875 -6.03125 5.351562 -6.765625 4.40625 -8.234375 C 4.226562 -8.585938 4.140625 -8.941406 4.140625 -9.296875 C 4.140625 -12.234375 10.492188 -16.03125 23.203125 -20.6875 C 27.503906 -22.21875 31.984375 -23.546875 36.640625 -24.671875 C 42.660156 -33.453125 45.671875 -41.625 45.671875 -49.1875 C 45.671875 -54.539062 43.9375 -58.316406 40.46875 -60.515625 C 38.613281 -60.941406 37.003906 -61.15625 35.640625 -61.15625 C 26.992188 -61.15625 19.015625 -55.1875 11.703125 -43.25 C 9.390625 -39.332031 7.5 -35.445312 6.03125 -31.59375 C 3.507812 -24.875 2.25 -20.75 2.25 -19.21875 C 2.1875 -18.613281 1.875 -18.050781 1.3125 -17.53125 C 0.925781 -17.320312 0.664062 -17.21875 0.53125 -17.21875 C 0.28125 -17.21875 0.101562 -17.53125 0 -18.15625 C 0 -34.539062 2.007812 -47.316406 6.03125 -56.484375 C 7.1875 -59.171875 8.445312 -61.65625 9.8125 -63.9375 Z M 5.828125 -9.140625 C 5.828125 -8.753906 6.769531 -8.367188 8.65625 -7.984375 C 8.695312 -7.984375 8.875 -7.960938 9.1875 -7.921875 C 13.519531 -7.921875 18.332031 -9.410156 23.625 -12.390625 C 25.476562 -13.398438 28.015625 -15.375 31.234375 -18.3125 C 33.085938 -20.238281 34.328125 -21.640625 34.953125 -22.515625 C 27.222656 -20.453125 20.554688 -18.160156 14.953125 -15.640625 C 8.867188 -12.671875 5.828125 -10.503906 5.828125 -9.140625 Z M 5.828125 -9.140625 "/></g></g></g><g fill="#0e105a" fill-opacity="1"><g transform="translate(52.336968, 99.518808)"><g><path d="M 1.84375 -35.6875 C 3.03125 -35.6875 3.710938 -34.832031 3.890625 -33.125 L 3.890625 -32.90625 C 3.890625 -31.050781 3.132812 -28.671875 1.625 -25.765625 C 2.082031 -25.453125 3.222656 -25.175781 5.046875 -24.9375 C 7.390625 -24.757812 8.5625 -24.53125 8.5625 -24.25 C 8.625 -24.113281 8.65625 -23.957031 8.65625 -23.78125 C 7.1875 -17.164062 6.453125 -12.160156 6.453125 -8.765625 L 6.453125 -8.65625 C 6.453125 -6.59375 6.75 -5.28125 7.34375 -4.71875 C 7.414062 -4.65625 7.503906 -4.625 7.609375 -4.625 L 7.828125 -4.625 C 9.253906 -4.96875 11.300781 -7.378906 13.96875 -11.859375 C 16.0625 -15.710938 18.070312 -20.332031 20 -25.71875 C 20.3125 -25.925781 20.539062 -26.03125 20.6875 -26.03125 C 21.28125 -25.925781 21.578125 -25.648438 21.578125 -25.203125 C 19.441406 -19.035156 16.957031 -13.625 14.125 -8.96875 C 11.5 -4.945312 9.429688 -2.9375 7.921875 -2.9375 L 7.453125 -2.9375 C 5.628906 -2.9375 4.316406 -4.914062 3.515625 -8.875 C 3.234375 -10.90625 3.09375 -12.773438 3.09375 -14.484375 C 3.09375 -17.285156 3.359375 -20.257812 3.890625 -23.40625 C -1.046875 -24.101562 -3.515625 -25.957031 -3.515625 -28.96875 L -3.515625 -29.296875 C -3.515625 -31.148438 -2.46875 -33.019531 -0.375 -34.90625 C 0.394531 -35.425781 1.132812 -35.6875 1.84375 -35.6875 Z M -0.890625 -29.921875 L -0.890625 -29.703125 C -0.890625 -28.722656 -0.503906 -27.796875 0.265625 -26.921875 L 0.3125 -26.921875 C 1.570312 -29.441406 2.203125 -31.472656 2.203125 -33.015625 C 2.203125 -33.679688 2.03125 -34.015625 1.6875 -34.015625 C -0.03125 -32.859375 -0.890625 -31.492188 -0.890625 -29.921875 Z M -0.890625 -29.921875 "/></g></g></g></g></g><g transform="matrix(1, 0, 0, 1, 146, 81)"><g clip-path="url(#3f26759792)"><g fill="#0e105a" fill-opacity="1"><g transform="translate(0.578187, 14.79013)"><g><path d="M 1.265625 -0.25 L 1.265625 -8.859375 C 1.265625 -8.921875 1.285156 -8.972656 1.328125 -9.015625 C 1.378906 -9.066406 1.4375 -9.09375 1.5 -9.09375 L 4.484375 -9.09375 C 5.109375 -9.09375 5.695312 -8.972656 6.25 -8.734375 C 6.800781 -8.503906 7.285156 -8.179688 7.703125 -7.765625 C 8.117188 -7.347656 8.445312 -6.863281 8.6875 -6.3125 C 8.925781 -5.769531 9.046875 -5.1875 9.046875 -4.5625 C 9.046875 -3.925781 8.925781 -3.332031 8.6875 -2.78125 C 8.445312 -2.238281 8.117188 -1.757812 7.703125 -1.34375 C 7.285156 -0.925781 6.800781 -0.597656 6.25 -0.359375 C 5.695312 -0.117188 5.109375 0 4.484375 0 L 1.5 0 C 1.4375 0 1.378906 -0.0234375 1.328125 -0.078125 C 1.285156 -0.128906 1.265625 -0.1875 1.265625 -0.25 Z M 2.59375 -1.234375 L 4.296875 -1.234375 C 4.941406 -1.234375 5.507812 -1.375 6 -1.65625 C 6.5 -1.945312 6.890625 -2.34375 7.171875 -2.84375 C 7.460938 -3.34375 7.609375 -3.914062 7.609375 -4.5625 C 7.609375 -5.207031 7.460938 -5.773438 7.171875 -6.265625 C 6.890625 -6.753906 6.5 -7.140625 6 -7.421875 C 5.507812 -7.710938 4.941406 -7.859375 4.296875 -7.859375 L 2.59375 -7.859375 Z M 2.59375 -1.234375 "/></g></g></g><g fill="#0e105a" fill-opacity="1"><g transform="translate(18.705513, 14.79013)"><g><path d="M 4.015625 -0.015625 L 0.046875 -8.765625 C 0.015625 -8.847656 0.0195312 -8.921875 0.0625 -8.984375 C 0.101562 -9.054688 0.171875 -9.09375 0.265625 -9.09375 L 1.203125 -9.09375 C 1.253906 -9.09375 1.300781 -9.078125 1.34375 -9.046875 C 1.382812 -9.023438 1.410156 -8.992188 1.421875 -8.953125 L 4.28125 -2.515625 L 4.359375 -2.515625 L 7.21875 -8.953125 C 7.226562 -8.992188 7.25 -9.023438 7.28125 -9.046875 C 7.320312 -9.078125 7.375 -9.09375 7.4375 -9.09375 L 8.359375 -9.09375 C 8.453125 -9.09375 8.519531 -9.054688 8.5625 -8.984375 C 8.613281 -8.921875 8.617188 -8.847656 8.578125 -8.765625 L 4.59375 -0.015625 C 4.550781 0.078125 4.476562 0.125 4.375 0.125 L 4.234375 0.125 C 4.140625 0.125 4.066406 0.078125 4.015625 -0.015625 Z M 4.015625 -0.015625 "/></g></g></g><g fill="#0e105a" fill-opacity="1"><g transform="translate(35.80565, 14.79013)"><g><path d="M 0.59375 -4.53125 C 0.59375 -5.1875 0.710938 -5.796875 0.953125 -6.359375 C 1.191406 -6.929688 1.523438 -7.429688 1.953125 -7.859375 C 2.378906 -8.285156 2.875 -8.617188 3.4375 -8.859375 C 4.007812 -9.109375 4.617188 -9.234375 5.265625 -9.234375 C 5.910156 -9.234375 6.515625 -9.109375 7.078125 -8.859375 C 7.648438 -8.617188 8.148438 -8.285156 8.578125 -7.859375 C 9.003906 -7.429688 9.335938 -6.929688 9.578125 -6.359375 C 9.816406 -5.796875 9.9375 -5.1875 9.9375 -4.53125 C 9.9375 -3.882812 9.816406 -3.28125 9.578125 -2.71875 C 9.335938 -2.15625 9.003906 -1.65625 8.578125 -1.21875 C 8.148438 -0.789062 7.648438 -0.457031 7.078125 -0.21875 C 6.515625 0.0078125 5.910156 0.125 5.265625 0.125 C 4.617188 0.125 4.007812 0.0078125 3.4375 -0.21875 C 2.875 -0.457031 2.378906 -0.789062 1.953125 -1.21875 C 1.523438 -1.65625 1.191406 -2.15625 0.953125 -2.71875 C 0.710938 -3.28125 0.59375 -3.882812 0.59375 -4.53125 Z M 1.890625 -4.53125 C 1.890625 -4.0625 1.976562 -3.625 2.15625 -3.21875 C 2.34375 -2.8125 2.585938 -2.453125 2.890625 -2.140625 C 3.203125 -1.835938 3.5625 -1.597656 3.96875 -1.421875 C 4.375 -1.253906 4.804688 -1.171875 5.265625 -1.171875 C 5.890625 -1.171875 6.457031 -1.320312 6.96875 -1.625 C 7.476562 -1.925781 7.882812 -2.332031 8.1875 -2.84375 C 8.488281 -3.351562 8.640625 -3.914062 8.640625 -4.53125 C 8.640625 -4.988281 8.550781 -5.425781 8.375 -5.84375 C 8.195312 -6.257812 7.953125 -6.617188 7.640625 -6.921875 C 7.335938 -7.234375 6.984375 -7.476562 6.578125 -7.65625 C 6.171875 -7.84375 5.734375 -7.9375 5.265625 -7.9375 C 4.804688 -7.9375 4.375 -7.84375 3.96875 -7.65625 C 3.5625 -7.476562 3.203125 -7.234375 2.890625 -6.921875 C 2.585938 -6.617188 2.34375 -6.257812 2.15625 -5.84375 C 1.976562 -5.425781 1.890625 -4.988281 1.890625 -4.53125 Z M 1.890625 -4.53125 "/></g></g></g><g fill="#0e105a" fill-opacity="1"><g transform="translate(54.817142, 14.79013)"><g><path d="M 0.59375 -4.53125 C 0.59375 -5.1875 0.710938 -5.796875 0.953125 -6.359375 C 1.203125 -6.929688 1.539062 -7.429688 1.96875 -7.859375 C 2.394531 -8.285156 2.890625 -8.617188 3.453125 -8.859375 C 4.023438 -9.109375 4.640625 -9.234375 5.296875 -9.234375 C 5.953125 -9.234375 6.53125 -9.125 7.03125 -8.90625 C 7.53125 -8.695312 8 -8.398438 8.4375 -8.015625 C 8.5 -7.960938 8.53125 -7.898438 8.53125 -7.828125 C 8.53125 -7.765625 8.503906 -7.707031 8.453125 -7.65625 L 7.875 -7.078125 C 7.78125 -6.953125 7.671875 -6.953125 7.546875 -7.078125 C 7.242188 -7.335938 6.894531 -7.546875 6.5 -7.703125 C 6.113281 -7.859375 5.710938 -7.9375 5.296875 -7.9375 C 4.679688 -7.9375 4.128906 -7.78125 3.640625 -7.46875 C 3.148438 -7.15625 2.757812 -6.742188 2.46875 -6.234375 C 2.1875 -5.722656 2.046875 -5.164062 2.046875 -4.5625 C 2.046875 -3.957031 2.1875 -3.398438 2.46875 -2.890625 C 2.757812 -2.378906 3.148438 -1.96875 3.640625 -1.65625 C 4.140625 -1.351562 4.695312 -1.203125 5.3125 -1.203125 C 5.789062 -1.203125 6.203125 -1.28125 6.546875 -1.4375 C 6.898438 -1.601562 7.234375 -1.804688 7.546875 -2.046875 C 7.660156 -2.140625 7.765625 -2.144531 7.859375 -2.0625 L 8.46875 -1.484375 C 8.519531 -1.441406 8.539062 -1.382812 8.53125 -1.3125 C 8.519531 -1.238281 8.492188 -1.175781 8.453125 -1.125 C 8.003906 -0.707031 7.507812 -0.394531 6.96875 -0.1875 C 6.425781 0.0195312 5.867188 0.125 5.296875 0.125 C 4.640625 0.125 4.023438 0.0078125 3.453125 -0.21875 C 2.890625 -0.457031 2.394531 -0.789062 1.96875 -1.21875 C 1.539062 -1.65625 1.203125 -2.15625 0.953125 -2.71875 C 0.710938 -3.28125 0.59375 -3.882812 0.59375 -4.53125 Z M 0.59375 -4.53125 "/></g></g></g><g fill="#0e105a" fill-opacity="1"><g transform="translate(72.333356, 14.79013)"><g><path d="M 0.265625 0 C 0.160156 0 0.0859375 -0.03125 0.046875 -0.09375 C 0.00390625 -0.164062 0 -0.25 0.03125 -0.34375 L 4.03125 -9.09375 C 4.050781 -9.132812 4.082031 -9.164062 4.125 -9.1875 C 4.175781 -9.21875 4.21875 -9.234375 4.25 -9.234375 L 4.375 -9.234375 C 4.414062 -9.234375 4.457031 -9.21875 4.5 -9.1875 C 4.550781 -9.164062 4.585938 -9.132812 4.609375 -9.09375 L 8.5625 -0.34375 C 8.601562 -0.25 8.597656 -0.164062 8.546875 -0.09375 C 8.503906 -0.03125 8.4375 0 8.34375 0 L 7.53125 0 C 7.382812 0 7.285156 -0.0625 7.234375 -0.1875 L 6.421875 -1.96875 L 2.171875 -1.96875 C 2.035156 -1.675781 1.898438 -1.382812 1.765625 -1.09375 C 1.640625 -0.800781 1.507812 -0.5 1.375 -0.1875 C 1.363281 -0.144531 1.332031 -0.101562 1.28125 -0.0625 C 1.226562 -0.0195312 1.160156 0 1.078125 0 Z M 2.671875 -3.09375 L 5.921875 -3.09375 L 4.328125 -6.65625 L 4.265625 -6.65625 Z M 2.671875 -3.09375 "/></g></g></g><g fill="#0e105a" fill-opacity="1"><g transform="translate(89.407484, 14.79013)"><g><path d="M 0.59375 -4.53125 C 0.59375 -5.1875 0.710938 -5.796875 0.953125 -6.359375 C 1.203125 -6.929688 1.539062 -7.429688 1.96875 -7.859375 C 2.394531 -8.285156 2.890625 -8.617188 3.453125 -8.859375 C 4.023438 -9.109375 4.640625 -9.234375 5.296875 -9.234375 C 5.953125 -9.234375 6.53125 -9.125 7.03125 -8.90625 C 7.53125 -8.695312 8 -8.398438 8.4375 -8.015625 C 8.5 -7.960938 8.53125 -7.898438 8.53125 -7.828125 C 8.53125 -7.765625 8.503906 -7.707031 8.453125 -7.65625 L 7.875 -7.078125 C 7.78125 -6.953125 7.671875 -6.953125 7.546875 -7.078125 C 7.242188 -7.335938 6.894531 -7.546875 6.5 -7.703125 C 6.113281 -7.859375 5.710938 -7.9375 5.296875 -7.9375 C 4.679688 -7.9375 4.128906 -7.78125 3.640625 -7.46875 C 3.148438 -7.15625 2.757812 -6.742188 2.46875 -6.234375 C 2.1875 -5.722656 2.046875 -5.164062 2.046875 -4.5625 C 2.046875 -3.957031 2.1875 -3.398438 2.46875 -2.890625 C 2.757812 -2.378906 3.148438 -1.96875 3.640625 -1.65625 C 4.140625 -1.351562 4.695312 -1.203125 5.3125 -1.203125 C 5.789062 -1.203125 6.203125 -1.28125 6.546875 -1.4375 C 6.898438 -1.601562 7.234375 -1.804688 7.546875 -2.046875 C 7.660156 -2.140625 7.765625 -2.144531 7.859375 -2.0625 L 8.46875 -1.484375 C 8.519531 -1.441406 8.539062 -1.382812 8.53125 -1.3125 C 8.519531 -1.238281 8.492188 -1.175781 8.453125 -1.125 C 8.003906 -0.707031 7.507812 -0.394531 6.96875 -0.1875 C 6.425781 0.0195312 5.867188 0.125 5.296875 0.125 C 4.640625 0.125 4.023438 0.0078125 3.453125 -0.21875 C 2.890625 -0.457031 2.394531 -0.789062 1.96875 -1.21875 C 1.539062 -1.65625 1.203125 -2.15625 0.953125 -2.71875 C 0.710938 -3.28125 0.59375 -3.882812 0.59375 -4.53125 Z M 0.59375 -4.53125 "/></g></g></g><g fill="#0e105a" fill-opacity="1"><g transform="translate(106.923699, 14.79013)"><g><path d="M 1.265625 -0.25 L 1.265625 -8.859375 C 1.265625 -8.921875 1.289062 -8.972656 1.34375 -9.015625 C 1.394531 -9.066406 1.453125 -9.09375 1.515625 -9.09375 L 2.359375 -9.09375 C 2.429688 -9.09375 2.488281 -9.066406 2.53125 -9.015625 C 2.582031 -8.972656 2.609375 -8.921875 2.609375 -8.859375 L 2.609375 -0.25 C 2.609375 -0.1875 2.582031 -0.128906 2.53125 -0.078125 C 2.488281 -0.0234375 2.429688 0 2.359375 0 L 1.515625 0 C 1.453125 0 1.394531 -0.0234375 1.34375 -0.078125 C 1.289062 -0.128906 1.265625 -0.1875 1.265625 -0.25 Z M 1.265625 -0.25 "/></g></g></g><g fill="#0e105a" fill-opacity="1"><g transform="translate(119.264942, 14.79013)"><g><path d="M 0.265625 0 C 0.160156 0 0.0859375 -0.03125 0.046875 -0.09375 C 0.00390625 -0.164062 0 -0.25 0.03125 -0.34375 L 4.03125 -9.09375 C 4.050781 -9.132812 4.082031 -9.164062 4.125 -9.1875 C 4.175781 -9.21875 4.21875 -9.234375 4.25 -9.234375 L 4.375 -9.234375 C 4.414062 -9.234375 4.457031 -9.21875 4.5 -9.1875 C 4.550781 -9.164062 4.585938 -9.132812 4.609375 -9.09375 L 8.5625 -0.34375 C 8.601562 -0.25 8.597656 -0.164062 8.546875 -0.09375 C 8.503906 -0.03125 8.4375 0 8.34375 0 L 7.53125 0 C 7.382812 0 7.285156 -0.0625 7.234375 -0.1875 L 6.421875 -1.96875 L 2.171875 -1.96875 C 2.035156 -1.675781 1.898438 -1.382812 1.765625 -1.09375 C 1.640625 -0.800781 1.507812 -0.5 1.375 -0.1875 C 1.363281 -0.144531 1.332031 -0.101562 1.28125 -0.0625 C 1.226562 -0.0195312 1.160156 0 1.078125 0 Z M 2.671875 -3.09375 L 5.921875 -3.09375 L 4.328125 -6.65625 L 4.265625 -6.65625 Z M 2.671875 -3.09375 "/></g></g></g></g></g><g transform="matrix(1, 0, 0, 1, 129, 77)"><g clip-path="url(#a5b42bff92)"><g fill="#0e105a" fill-opacity="1"><g transform="translate(1.130505, 22.432707)"><g><path d="M 0.421875 0 C 0.265625 0 0.148438 -0.0507812 0.078125 -0.15625 C 0.015625 -0.269531 0.0078125 -0.398438 0.0625 -0.546875 L 6.484375 -14.625 C 6.515625 -14.695312 6.566406 -14.753906 6.640625 -14.796875 C 6.710938 -14.835938 6.78125 -14.859375 6.84375 -14.859375 L 7.046875 -14.859375 C 7.109375 -14.859375 7.175781 -14.835938 7.25 -14.796875 C 7.320312 -14.753906 7.375 -14.695312 7.40625 -14.625 L 13.78125 -0.546875 C 13.851562 -0.398438 13.847656 -0.269531 13.765625 -0.15625 C 13.691406 -0.0507812 13.582031 0 13.4375 0 L 12.109375 0 C 11.890625 0 11.726562 -0.101562 11.625 -0.3125 L 10.328125 -3.1875 L 3.5 -3.1875 C 3.289062 -2.707031 3.078125 -2.226562 2.859375 -1.75 C 2.640625 -1.28125 2.425781 -0.800781 2.21875 -0.3125 C 2.1875 -0.238281 2.128906 -0.164062 2.046875 -0.09375 C 1.960938 -0.03125 1.859375 0 1.734375 0 Z M 4.3125 -4.984375 L 9.546875 -4.984375 L 6.96875 -10.71875 L 6.859375 -10.71875 Z M 4.3125 -4.984375 "/></g></g></g></g></g><g transform="matrix(1, 0, 0, 1, 114, 33)"><g clip-path="url(#a35da6ff3b)"><g fill="#0e105a" fill-opacity="1"><g transform="translate(0.743529, 41.211497)"><g><path d="M 1.578125 -13.390625 C 1.578125 -15.304688 1.925781 -17.101562 2.625 -18.78125 C 3.332031 -20.457031 4.316406 -21.925781 5.578125 -23.1875 C 6.847656 -24.457031 8.3125 -25.445312 9.96875 -26.15625 C 11.632812 -26.875 13.425781 -27.234375 15.34375 -27.234375 C 17.257812 -27.234375 19.054688 -26.875 20.734375 -26.15625 C 22.410156 -25.445312 23.875 -24.457031 25.125 -23.1875 C 26.375 -21.925781 27.359375 -20.457031 28.078125 -18.78125 C 28.796875 -17.101562 29.15625 -15.304688 29.15625 -13.390625 C 29.15625 -11.472656 28.796875 -9.679688 28.078125 -8.015625 C 27.359375 -6.359375 26.375 -4.894531 25.125 -3.625 C 23.875 -2.351562 22.410156 -1.363281 20.734375 -0.65625 C 19.054688 0.0390625 17.257812 0.390625 15.34375 0.390625 C 13.425781 0.390625 11.632812 0.0390625 9.96875 -0.65625 C 8.3125 -1.363281 6.847656 -2.351562 5.578125 -3.625 C 4.316406 -4.894531 3.332031 -6.359375 2.625 -8.015625 C 1.925781 -9.679688 1.578125 -11.472656 1.578125 -13.390625 Z M 6.5625 -13.390625 C 6.5625 -11.773438 6.957031 -10.300781 7.75 -8.96875 C 8.539062 -7.644531 9.597656 -6.585938 10.921875 -5.796875 C 12.253906 -5.003906 13.726562 -4.609375 15.34375 -4.609375 C 16.957031 -4.609375 18.429688 -5.003906 19.765625 -5.796875 C 21.109375 -6.585938 22.175781 -7.644531 22.96875 -8.96875 C 23.769531 -10.300781 24.171875 -11.773438 24.171875 -13.390625 C 24.171875 -14.992188 23.769531 -16.46875 22.96875 -17.8125 C 22.175781 -19.15625 21.109375 -20.226562 19.765625 -21.03125 C 18.429688 -21.84375 16.957031 -22.25 15.34375 -22.25 C 13.726562 -22.25 12.253906 -21.84375 10.921875 -21.03125 C 9.597656 -20.226562 8.539062 -19.15625 7.75 -17.8125 C 6.957031 -16.46875 6.5625 -14.992188 6.5625 -13.390625 Z M 6.5625 -13.390625 "/></g></g></g><g fill="#0e105a" fill-opacity="1"><g transform="translate(31.42913, 41.211497)"><g><path d="M 3.484375 -0.734375 L 3.484375 -26.125 C 3.484375 -26.320312 3.550781 -26.492188 3.6875 -26.640625 C 3.832031 -26.785156 4.007812 -26.859375 4.21875 -26.859375 L 7.75 -26.859375 C 7.957031 -26.859375 8.128906 -26.785156 8.265625 -26.640625 C 8.410156 -26.492188 8.484375 -26.320312 8.484375 -26.125 L 8.484375 -4.609375 L 18.265625 -4.609375 C 18.460938 -4.609375 18.628906 -4.535156 18.765625 -4.390625 C 18.910156 -4.253906 18.984375 -4.082031 18.984375 -3.875 L 18.984375 -0.734375 C 18.984375 -0.546875 18.910156 -0.375 18.765625 -0.21875 C 18.628906 -0.0703125 18.460938 0 18.265625 0 L 4.21875 0 C 4.007812 0 3.832031 -0.0703125 3.6875 -0.21875 C 3.550781 -0.375 3.484375 -0.546875 3.484375 -0.734375 Z M 3.484375 -0.734375 "/></g></g></g><g fill="#0e105a" fill-opacity="1"><g transform="translate(50.799413, 41.211497)"><g><path d="M 3.484375 -0.734375 L 3.484375 -26.125 C 3.484375 -26.320312 3.5625 -26.492188 3.71875 -26.640625 C 3.875 -26.785156 4.039062 -26.859375 4.21875 -26.859375 L 7.78125 -26.859375 C 7.988281 -26.859375 8.160156 -26.785156 8.296875 -26.640625 C 8.441406 -26.492188 8.515625 -26.320312 8.515625 -26.125 L 8.515625 -0.734375 C 8.515625 -0.546875 8.441406 -0.375 8.296875 -0.21875 C 8.160156 -0.0703125 7.988281 0 7.78125 0 L 4.21875 0 C 4.039062 0 3.875 -0.0703125 3.71875 -0.21875 C 3.5625 -0.375 3.484375 -0.546875 3.484375 -0.734375 Z M 3.484375 -0.734375 "/></g></g></g><g fill="#0e105a" fill-opacity="1"><g transform="translate(62.805153, 41.211497)"><g><path d="M 11.859375 -0.03125 L 0 -25.859375 C -0.101562 -26.109375 -0.09375 -26.335938 0.03125 -26.546875 C 0.164062 -26.753906 0.375 -26.859375 0.65625 -26.859375 L 4.5625 -26.859375 C 4.738281 -26.859375 4.882812 -26.8125 5 -26.71875 C 5.113281 -26.625 5.1875 -26.523438 5.21875 -26.421875 L 12.578125 -9.9375 L 12.84375 -9.9375 L 20.21875 -26.421875 C 20.269531 -26.523438 20.34375 -26.625 20.4375 -26.71875 C 20.539062 -26.8125 20.6875 -26.859375 20.875 -26.859375 L 24.78125 -26.859375 C 25.0625 -26.859375 25.269531 -26.753906 25.40625 -26.546875 C 25.550781 -26.335938 25.5625 -26.109375 25.4375 -25.859375 L 13.546875 -0.03125 C 13.410156 0.25 13.191406 0.390625 12.890625 0.390625 L 12.5 0.390625 C 12.21875 0.390625 12.003906 0.25 11.859375 -0.03125 Z M 11.859375 -0.03125 "/></g></g></g><g fill="#0e105a" fill-opacity="1"><g transform="translate(88.235844, 41.211497)"><g><path d="M 3.484375 -0.734375 L 3.484375 -26.125 C 3.484375 -26.320312 3.550781 -26.492188 3.6875 -26.640625 C 3.832031 -26.785156 4.007812 -26.859375 4.21875 -26.859375 L 19.828125 -26.859375 C 20.035156 -26.859375 20.207031 -26.785156 20.34375 -26.640625 C 20.488281 -26.492188 20.5625 -26.320312 20.5625 -26.125 L 20.5625 -22.984375 C 20.5625 -22.796875 20.488281 -22.625 20.34375 -22.46875 C 20.207031 -22.320312 20.035156 -22.25 19.828125 -22.25 L 8.484375 -22.25 L 8.484375 -15.953125 L 17.953125 -15.953125 C 18.160156 -15.953125 18.332031 -15.878906 18.46875 -15.734375 C 18.613281 -15.597656 18.6875 -15.429688 18.6875 -15.234375 L 18.6875 -12.046875 C 18.6875 -11.835938 18.613281 -11.660156 18.46875 -11.515625 C 18.332031 -11.378906 18.160156 -11.3125 17.953125 -11.3125 L 8.484375 -11.3125 L 8.484375 -4.609375 L 19.828125 -4.609375 C 20.035156 -4.609375 20.207031 -4.535156 20.34375 -4.390625 C 20.488281 -4.253906 20.5625 -4.082031 20.5625 -3.875 L 20.5625 -0.734375 C 20.5625 -0.546875 20.488281 -0.375 20.34375 -0.21875 C 20.207031 -0.0703125 20.035156 0 19.828125 0 L 4.21875 0 C 4.007812 0 3.832031 -0.0703125 3.6875 -0.21875 C 3.550781 -0.375 3.484375 -0.546875 3.484375 -0.734375 Z M 3.484375 -0.734375 "/></g></g></g><g fill="#0e105a" fill-opacity="1"><g transform="translate(110.789756, 41.211497)"><g><path d="M 3.484375 -0.734375 L 3.484375 -26.125 C 3.484375 -26.320312 3.5625 -26.492188 3.71875 -26.640625 C 3.875 -26.785156 4.039062 -26.859375 4.21875 -26.859375 L 7.78125 -26.859375 C 7.988281 -26.859375 8.160156 -26.785156 8.296875 -26.640625 C 8.441406 -26.492188 8.515625 -26.320312 8.515625 -26.125 L 8.515625 -0.734375 C 8.515625 -0.546875 8.441406 -0.375 8.296875 -0.21875 C 8.160156 -0.0703125 7.988281 0 7.78125 0 L 4.21875 0 C 4.039062 0 3.875 -0.0703125 3.71875 -0.21875 C 3.5625 -0.375 3.484375 -0.546875 3.484375 -0.734375 Z M 3.484375 -0.734375 "/></g></g></g><g fill="#0e105a" fill-opacity="1"><g transform="translate(122.795489, 41.211497)"><g><path d="M 3.484375 -0.734375 L 3.484375 -26.125 C 3.484375 -26.320312 3.550781 -26.492188 3.6875 -26.640625 C 3.832031 -26.785156 4.007812 -26.859375 4.21875 -26.859375 L 15.1875 -26.859375 C 16.71875 -26.859375 18.117188 -26.484375 19.390625 -25.734375 C 20.660156 -24.992188 21.671875 -24.003906 22.421875 -22.765625 C 23.171875 -21.523438 23.546875 -20.140625 23.546875 -18.609375 C 23.546875 -16.835938 23.015625 -15.269531 21.953125 -13.90625 C 20.898438 -12.539062 19.539062 -11.523438 17.875 -10.859375 L 23.125 -1.109375 C 23.257812 -0.859375 23.269531 -0.609375 23.15625 -0.359375 C 23.039062 -0.117188 22.816406 0 22.484375 0 L 18.453125 0 C 18.273438 0 18.140625 -0.0351562 18.046875 -0.109375 C 17.953125 -0.191406 17.882812 -0.269531 17.84375 -0.34375 L 12.734375 -10.515625 L 8.484375 -10.515625 L 8.484375 -0.734375 C 8.484375 -0.546875 8.410156 -0.375 8.265625 -0.21875 C 8.128906 -0.0703125 7.957031 0 7.75 0 L 4.21875 0 C 4.007812 0 3.832031 -0.0703125 3.6875 -0.21875 C 3.550781 -0.375 3.484375 -0.546875 3.484375 -0.734375 Z M 8.515625 -14.609375 L 14.765625 -14.609375 C 15.785156 -14.609375 16.671875 -14.992188 17.421875 -15.765625 C 18.179688 -16.535156 18.5625 -17.457031 18.5625 -18.53125 C 18.5625 -19.550781 18.179688 -20.425781 17.421875 -21.15625 C 16.671875 -21.882812 15.785156 -22.25 14.765625 -22.25 L 8.515625 -22.25 Z M 8.515625 -14.609375 "/></g></g></g><g fill="#0e105a" fill-opacity="1"><g transform="translate(148.34126, 41.211497)"><g><path d="M 0.65625 0 C 0.375 0 0.164062 -0.0976562 0.03125 -0.296875 C -0.09375 -0.503906 -0.101562 -0.738281 0 -1 L 11.9375 -26.8125 C 12.082031 -27.09375 12.296875 -27.234375 12.578125 -27.234375 L 12.96875 -27.234375 C 13.164062 -27.234375 13.3125 -27.191406 13.40625 -27.109375 C 13.5 -27.035156 13.570312 -26.9375 13.625 -26.8125 L 25.4375 -1 C 25.5625 -0.738281 25.550781 -0.503906 25.40625 -0.296875 C 25.269531 -0.0976562 25.0625 0 24.78125 0 L 21.4375 0 C 20.957031 0 20.585938 -0.253906 20.328125 -0.765625 L 18.453125 -4.90625 L 6.984375 -4.90625 L 5.109375 -0.765625 C 5.023438 -0.585938 4.894531 -0.414062 4.71875 -0.25 C 4.539062 -0.0820312 4.296875 0 3.984375 0 Z M 8.859375 -9.171875 L 16.578125 -9.171875 L 12.734375 -17.609375 L 12.625 -17.609375 Z M 8.859375 -9.171875 "/></g></g></g></g></g></svg>
